<?xml version="1.0" encoding="UTF-8" standalone="no"?>
<!-- Created with Inkscape (http://www.inkscape.org/) -->

<svg
   xmlns:dc="http://purl.org/dc/elements/1.1/"
   xmlns:cc="http://creativecommons.org/ns#"
   xmlns:rdf="http://www.w3.org/1999/02/22-rdf-syntax-ns#"
   xmlns:svg="http://www.w3.org/2000/svg"
   xmlns="http://www.w3.org/2000/svg"
   xmlns:sodipodi="http://sodipodi.sourceforge.net/DTD/sodipodi-0.dtd"
   xmlns:inkscape="http://www.inkscape.org/namespaces/inkscape"
   width="744.09448819"
   height="1052.3622047"
   id="svg3755"
   version="1.1"
   inkscape:version="0.48.2 r9819"
   inkscape:export-filename="/Users/k/Sites/limejs/duelists/assets/sprites/antag01.png"
   inkscape:export-xdpi="7.3603144"
   inkscape:export-ydpi="7.3603144"
   sodipodi:docname="antag01.svg">
  <defs
     id="defs3757" />
  <sodipodi:namedview
     id="base"
     pagecolor="#ffffff"
     bordercolor="#666666"
     borderopacity="1.0"
     inkscape:pageopacity="0.0"
     inkscape:pageshadow="2"
     inkscape:zoom="0.35"
     inkscape:cx="275"
     inkscape:cy="520"
     inkscape:document-units="px"
     inkscape:current-layer="layer3"
     showgrid="false"
     inkscape:window-width="1094"
     inkscape:window-height="725"
     inkscape:window-x="57"
     inkscape:window-y="33"
     inkscape:window-maximized="0" />
  <metadata
     id="metadata3760">
    <rdf:RDF>
      <cc:Work
         rdf:about="">
        <dc:format>image/svg+xml</dc:format>
        <dc:type
           rdf:resource="http://purl.org/dc/dcmitype/StillImage" />
        <dc:title></dc:title>
      </cc:Work>
    </rdf:RDF>
  </metadata>
  <g
     inkscape:label="Layer 1"
     inkscape:groupmode="layer"
     id="layer1">
    <path
       sodipodi:type="arc"
       style="fill:#092140;fill-opacity:1;stroke:none"
       id="path3782"
       sodipodi:cx="305.71429"
       sodipodi:cy="189.50504"
       sodipodi:rx="48.57143"
       sodipodi:ry="65.714287"
       d="m 354.28572,189.50504 a 48.57143,65.714287 0 1 1 -97.14286,0 48.57143,65.714287 0 1 1 97.14286,0 z"
       transform="matrix(-1,0,0,1,626.07583,22.857143)"
       inkscape:export-filename="/Users/k/Sites/limejs/duelists/assets/sprites/antag02.png"
       inkscape:export-xdpi="7.3603144"
       inkscape:export-ydpi="7.3603144" />
    <path
       style="fill:#092140;fill-opacity:1;stroke:none"
       d="m 326.07584,260.93361 c 27.95035,189.22995 -3.96841,285.89649 0,282.85714 l -22.85714,317.14286 -37.14287,1.42857 22.85715,-370 -34.28571,137.14286 c -54.59319,80.31574 -38.05764,-69.38079 -57.14286,-114.28572 l 15.71428,-77.14285 c 21.38106,-51.35143 51.79677,-18.16736 95.71429,-120"
       id="path4292"
       inkscape:connector-curvature="0"
       sodipodi:nodetypes="ccccccccc"
       inkscape:export-filename="/Users/k/Sites/limejs/duelists/assets/sprites/antag02.png"
       inkscape:export-xdpi="7.3603144"
       inkscape:export-ydpi="7.3603144" />
    <path
       sodipodi:nodetypes="ccccccccc"
       inkscape:connector-curvature="0"
       id="path4296"
       d="m 333.42732,255.21933 c -27.95035,189.22995 -1.74588,303.03935 -5.71429,300 l 55.71429,310 30,-1.42857 -68.57143,-348.57143 88.57143,180 c 37.30054,57.72756 59.85133,-223.6449 57.14285,-200 7.45643,35.23226 -56.48487,-179.48923 -72.81964,-197.08661 -15.00615,-10.01929 -15.66867,-13.55409 -32.89464,-22.91339"
       style="fill:#092140;fill-opacity:1;stroke:none"
       inkscape:export-filename="/Users/k/Sites/limejs/duelists/assets/sprites/antag02.png"
       inkscape:export-xdpi="7.3603144"
       inkscape:export-ydpi="7.3603144" />
  </g>
  <g
     inkscape:groupmode="layer"
     id="layer2"
     inkscape:label="Layer"
     style="display:none">
    <rect
       style="fill:#000000;fill-opacity:1;fill-rule:nonzero;stroke:none"
       id="rect5618"
       width="94.285713"
       height="151.42857"
       x="192.41371"
       y="88.495697"
       rx="3.5724089"
       ry="4.5756822"
       transform="matrix(0.96860987,-0.24858585,0.24858585,0.96860987,0,0)" />
    <path
       sodipodi:type="arc"
       style="fill:#000000;fill-opacity:1;fill-rule:nonzero;stroke:none"
       id="path6128"
       sodipodi:cx="301.42856"
       sodipodi:cy="172.36218"
       sodipodi:rx="87.14286"
       sodipodi:ry="20"
       d="m 388.57142,172.36218 a 87.14286,20 0 1 1 -174.28572,0 87.14286,20 0 1 1 174.28572,0 z"
       transform="matrix(0.97643969,-0.21579047,0.21579047,0.97643969,-35.806653,74.820604)" />
  </g>
  <g
     inkscape:groupmode="layer"
     id="layer3"
     inkscape:label="antag">
    <path
       style="fill:#092140;stroke:#000000;stroke-width:1px;stroke-linecap:butt;stroke-linejoin:miter;stroke-opacity:1;fill-opacity:1"
       d="m 300,140.93361 c 19.58352,1.10452 57.44281,-38.20715 91.42857,74.28572 -10.39823,22.13864 -22.06284,40.47814 -40,40 l -80,-82.85715 z"
       id="path8863"
       inkscape:connector-curvature="0"
       sodipodi:nodetypes="ccccc"
       inkscape:export-filename="/Users/k/Sites/limejs/duelists/assets/sprites/antag02.png"
       inkscape:export-xdpi="7.3603144"
       inkscape:export-ydpi="7.3603144" />
  </g>
</svg>
