<?xml version="1.0" encoding="UTF-8" standalone="no"?>
<!-- Created with Inkscape (http://www.inkscape.org/) -->

<svg
   xmlns:dc="http://purl.org/dc/elements/1.1/"
   xmlns:cc="http://creativecommons.org/ns#"
   xmlns:rdf="http://www.w3.org/1999/02/22-rdf-syntax-ns#"
   xmlns:svg="http://www.w3.org/2000/svg"
   xmlns="http://www.w3.org/2000/svg"
   xmlns:sodipodi="http://sodipodi.sourceforge.net/DTD/sodipodi-0.dtd"
   xmlns:inkscape="http://www.inkscape.org/namespaces/inkscape"
   width="744.09448819"
   height="1052.3622047"
   id="svg3755"
   version="1.1"
   inkscape:version="0.48.2 r9819"
   inkscape:export-filename="/Users/k/Sites/limejs/duelists/assets/sprites/antag10.png"
   inkscape:export-xdpi="7.3603144"
   inkscape:export-ydpi="7.3603144"
   sodipodi:docname="antag10.svg">
  <defs
     id="defs3757" />
  <sodipodi:namedview
     id="base"
     pagecolor="#ffffff"
     bordercolor="#666666"
     borderopacity="1.0"
     inkscape:pageopacity="0.0"
     inkscape:pageshadow="2"
     inkscape:zoom="0.49497475"
     inkscape:cx="283.74184"
     inkscape:cy="651.97701"
     inkscape:document-units="px"
     inkscape:current-layer="layer1"
     showgrid="false"
     inkscape:window-width="1094"
     inkscape:window-height="725"
     inkscape:window-x="57"
     inkscape:window-y="33"
     inkscape:window-maximized="0" />
  <metadata
     id="metadata3760">
    <rdf:RDF>
      <cc:Work
         rdf:about="">
        <dc:format>image/svg+xml</dc:format>
        <dc:type
           rdf:resource="http://purl.org/dc/dcmitype/StillImage" />
        <dc:title></dc:title>
      </cc:Work>
    </rdf:RDF>
  </metadata>
  <g
     inkscape:label="Layer 1"
     inkscape:groupmode="layer"
     id="layer1">
    <path
       transform="matrix(-1,0,0,1,626.07583,22.857143)"
       style="fill:#092140;fill-opacity:1;stroke:none"
       d="m 368.57143,195.21933 c -15.51123,25.55767 -3.17474,51.42856 -30,51.42856 -26.82526,0 -77.14286,-25.13557 -81.42857,-57.14285 -4.81658,-35.97197 21.74617,-65.71429 48.57143,-65.71429 26.82526,0 62.85714,35.13558 62.85714,71.42858 z"
       id="path3782"
       inkscape:connector-curvature="0"
       sodipodi:nodetypes="ccscc" />
    <path
       style="fill:#092140;fill-opacity:1;stroke:none"
       d="m 320.36155,243.79075 c 34.12434,193.63994 5.97687,335.50022 -18.52937,312.12183 l -41.47063,299.30675 -25.71429,-4.28572 54.28572,-358.57143 28.91807,-212.81508 c -13.49373,7.04124 -106.23318,170.84196 -96.9993,267.8361 l -19.06163,-17.87816 c 3.98826,-77.44063 43.99616,-211.29685 115.71429,-271.42857"
       id="path4292"
       inkscape:connector-curvature="0"
       sodipodi:nodetypes="ccccccccc"
       inkscape:export-filename="/Users/k/Sites/limejs/duelists/assets/sprites/antag.png"
       inkscape:export-xdpi="7.3603144"
       inkscape:export-ydpi="7.3603144" />
    <path
       sodipodi:nodetypes="ccccccccc"
       inkscape:connector-curvature="0"
       id="path4296"
       d="m 324.85589,249.50504 c -30.05351,192.73521 -10.12458,347.30843 12.46846,300 l 31.81725,307.14286 15.71429,4.28572 -28.57143,-362.85715 -10.79479,-221.85209 c 23.18449,77.1524 83.06199,189.89318 29.36622,243.28066 -12.54357,9.51798 29.47451,11.14456 10.2826,19.26146 43.9928,-20.38235 37.67588,-186.95156 -43.13974,-299.26145"
       style="fill:#092140;fill-opacity:1;stroke:none"
       inkscape:export-filename="/Users/k/Sites/limejs/duelists/assets/sprites/antag.png"
       inkscape:export-xdpi="7.3603144"
       inkscape:export-ydpi="7.3603144" />
    <path
       style="fill:#092140;fill-opacity:1;stroke:none"
       d="m 282.84271,173.52947 c -14.78975,-8.75834 -4.63752,-21.07983 -2.0203,-32.32488 25.75517,-0.39846 31.77382,6.60428 36.36549,14.14213 -10.335,-7.2468 1.02762,-11.28128 28.28427,-21.2132 20.5695,19.68242 31.09286,36.49451 14.14214,45.45686 -2.50056,-14.27574 9.75832,-7.88827 20.20305,-4.04061 7.62717,31.56261 0.53926,31.00423 -9.09138,39.39596 l 5.05077,21.2132 c -35.78449,11.68607 -35.89238,-3.3853 -52.52794,-6.06092 L 274.76149,185.6513 z"
       id="path11343"
       inkscape:connector-curvature="0"
       sodipodi:nodetypes="ccccccccccc" />
    <rect
       style="fill:#092140;fill-opacity:1;fill-rule:nonzero;stroke:none"
       id="rect11345"
       width="44.446712"
       height="72.73098"
       x="301.02545"
       y="490.71738"
       rx="8.5565166"
       ry="7.2632256" />
  </g>
  <g
     inkscape:groupmode="layer"
     id="layer2"
     inkscape:label="Layer"
     style="display:none">
    <rect
       style="fill:#000000;fill-opacity:1;fill-rule:nonzero;stroke:none"
       id="rect5618"
       width="94.285713"
       height="151.42857"
       x="192.41371"
       y="88.495697"
       rx="3.5724089"
       ry="4.5756822"
       transform="matrix(0.96860987,-0.24858585,0.24858585,0.96860987,0,0)" />
    <path
       sodipodi:type="arc"
       style="fill:#000000;fill-opacity:1;fill-rule:nonzero;stroke:none"
       id="path6128"
       sodipodi:cx="301.42856"
       sodipodi:cy="172.36218"
       sodipodi:rx="87.14286"
       sodipodi:ry="20"
       d="m 388.57142,172.36218 a 87.14286,20 0 1 1 -174.28572,0 87.14286,20 0 1 1 174.28572,0 z"
       transform="matrix(0.97643969,-0.21579047,0.21579047,0.97643969,-35.806653,74.820604)" />
  </g>
  <g
     inkscape:groupmode="layer"
     id="layer3"
     inkscape:label="antag" />
</svg>
