<?xml version="1.0" encoding="UTF-8" standalone="no"?>
<!-- Created with Inkscape (http://www.inkscape.org/) -->

<svg
   xmlns:dc="http://purl.org/dc/elements/1.1/"
   xmlns:cc="http://creativecommons.org/ns#"
   xmlns:rdf="http://www.w3.org/1999/02/22-rdf-syntax-ns#"
   xmlns:svg="http://www.w3.org/2000/svg"
   xmlns="http://www.w3.org/2000/svg"
   xmlns:sodipodi="http://sodipodi.sourceforge.net/DTD/sodipodi-0.dtd"
   xmlns:inkscape="http://www.inkscape.org/namespaces/inkscape"
   width="744.09448819"
   height="1052.3622047"
   id="svg3755"
   version="1.1"
   inkscape:version="0.48.2 r9819"
   inkscape:export-filename="/Users/k/Sites/limejs/duelists/assets/sprites/antag09.png"
   inkscape:export-xdpi="7.3603144"
   inkscape:export-ydpi="7.3603144"
   sodipodi:docname="antag09.svg">
  <defs
     id="defs3757" />
  <sodipodi:namedview
     id="base"
     pagecolor="#ffffff"
     bordercolor="#666666"
     borderopacity="1.0"
     inkscape:pageopacity="0.0"
     inkscape:pageshadow="2"
     inkscape:zoom="0.7"
     inkscape:cx="-35"
     inkscape:cy="819.57947"
     inkscape:document-units="px"
     inkscape:current-layer="layer1"
     showgrid="false"
     inkscape:window-width="1094"
     inkscape:window-height="725"
     inkscape:window-x="57"
     inkscape:window-y="33"
     inkscape:window-maximized="0" />
  <metadata
     id="metadata3760">
    <rdf:RDF>
      <cc:Work
         rdf:about="">
        <dc:format>image/svg+xml</dc:format>
        <dc:type
           rdf:resource="http://purl.org/dc/dcmitype/StillImage" />
        <dc:title></dc:title>
      </cc:Work>
    </rdf:RDF>
  </metadata>
  <g
     inkscape:label="Layer 1"
     inkscape:groupmode="layer"
     id="layer1">
    <path
       transform="matrix(-1,0,0,1,626.07583,22.857143)"
       style="fill:#092140;fill-opacity:1;stroke:none"
       d="m 354.28572,203.79076 c 35.44834,45.09186 -21.43017,53.45295 -48.57143,58.57142 -26.82526,0 -48.57143,-36.56415 -48.57143,-72.85714 0,-36.293 21.74617,-58.57143 48.57143,-58.57143 14.6934,1.1527 67.46286,11.4291 41.95995,49.67199 10.21138,12.5286 13.57897,1.59511 6.61148,23.18516 z"
       id="path3782"
       inkscape:connector-curvature="0"
       sodipodi:nodetypes="ccsccc" />
    <path
       style="fill:#092140;fill-opacity:1;stroke:none"
       d="m 308.93298,278.07646 c 27.95035,-71.77765 16.03159,283.03935 20,280 -57.56527,132.53855 -77.22957,201.35714 -111.42857,300.00001 l -25.71429,-4.28572 c 27.8012,-112.44104 53.51376,-113.54807 97.14286,-361.42857 l 1.42857,-155.71428 c -67.73686,84.14747 -71.82847,141.79086 -22.85714,191.42856 l -30.00001,5.7143 c -35.7618,-22.78 -67.40071,-66.73879 1.42858,-168.57143"
       id="path4292"
       inkscape:connector-curvature="0"
       sodipodi:nodetypes="ccccccccc"
       inkscape:export-filename="/Users/k/Sites/limejs/duelists/assets/sprites/antag01.png"
       inkscape:export-xdpi="7.3603144"
       inkscape:export-ydpi="7.3603144" />
    <path
       sodipodi:nodetypes="ccccccccc"
       inkscape:connector-curvature="0"
       id="path4296"
       d="m 324.85589,249.50504 c -27.95035,189.22995 -16.03159,331.61078 -20,328.57143 62.64832,-17.3786 41.71187,169.39903 78.57143,287.14286 l 30,-1.42857 C 405.77735,736.63424 354.24239,527.466 356.28446,498.07647 L 344.85589,346.6479 c 9.29151,-6.05126 62.50401,91.12574 114.28571,187.14286 -12.54357,9.51798 39.22941,-19.48922 20.0375,-11.37232 C 446.20424,435.54619 380.20436,305.99811 336.28446,256.6479"
       style="fill:#092140;fill-opacity:1;stroke:none"
       inkscape:export-filename="/Users/k/Sites/limejs/duelists/assets/sprites/antag01.png"
       inkscape:export-xdpi="7.3603144"
       inkscape:export-ydpi="7.3603144" />
    <path
       style="fill:#092140;fill-opacity:1;stroke:none"
       d="M 277.14286,200.93361 251.42857,225.21932 290,232.36218 z"
       id="path12132"
       inkscape:connector-curvature="0"
       sodipodi:nodetypes="cccc" />
  </g>
  <g
     inkscape:groupmode="layer"
     id="layer2"
     inkscape:label="Layer"
     style="display:none">
    <rect
       style="fill:#000000;fill-opacity:1;fill-rule:nonzero;stroke:none"
       id="rect5618"
       width="94.285713"
       height="151.42857"
       x="192.41371"
       y="88.495697"
       rx="3.5724089"
       ry="4.5756822"
       transform="matrix(0.96860987,-0.24858585,0.24858585,0.96860987,0,0)" />
    <path
       sodipodi:type="arc"
       style="fill:#000000;fill-opacity:1;fill-rule:nonzero;stroke:none"
       id="path6128"
       sodipodi:cx="301.42856"
       sodipodi:cy="172.36218"
       sodipodi:rx="87.14286"
       sodipodi:ry="20"
       d="m 388.57142,172.36218 a 87.14286,20 0 1 1 -174.28572,0 87.14286,20 0 1 1 174.28572,0 z"
       transform="matrix(0.97643969,-0.21579047,0.21579047,0.97643969,-35.806653,74.820604)" />
  </g>
  <g
     inkscape:groupmode="layer"
     id="layer3"
     inkscape:label="antag">
    <path
       style="fill:#092140;fill-opacity:1;stroke:none"
       d="m 315.71428,163.79075 22.85715,-45.71428 7.14286,25.71428 22.85714,-12.85714 2.85714,27.14286 24.28572,-7.14286 -44.28572,44.28572 z"
       id="path11622"
       inkscape:connector-curvature="0"
       sodipodi:nodetypes="cccccccc" />
  </g>
</svg>
