<?xml version="1.0" encoding="UTF-8" standalone="no"?>
<!-- Created with Inkscape (http://www.inkscape.org/) -->

<svg
   xmlns:dc="http://purl.org/dc/elements/1.1/"
   xmlns:cc="http://creativecommons.org/ns#"
   xmlns:rdf="http://www.w3.org/1999/02/22-rdf-syntax-ns#"
   xmlns:svg="http://www.w3.org/2000/svg"
   xmlns="http://www.w3.org/2000/svg"
   xmlns:sodipodi="http://sodipodi.sourceforge.net/DTD/sodipodi-0.dtd"
   xmlns:inkscape="http://www.inkscape.org/namespaces/inkscape"
   width="744.09448819"
   height="1052.3622047"
   id="svg3755"
   version="1.1"
   inkscape:version="0.48.2 r9819"
   inkscape:export-filename="/Users/k/Sites/limejs/duelists/assets/sprites/antag.png"
   inkscape:export-xdpi="7.3603144"
   inkscape:export-ydpi="7.3603144"
   sodipodi:docname="antag01.svg">
  <defs
     id="defs3757" />
  <sodipodi:namedview
     id="base"
     pagecolor="#ffffff"
     bordercolor="#666666"
     borderopacity="1.0"
     inkscape:pageopacity="0.0"
     inkscape:pageshadow="2"
     inkscape:zoom="0.35"
     inkscape:cx="275"
     inkscape:cy="520"
     inkscape:document-units="px"
     inkscape:current-layer="layer1"
     showgrid="false"
     inkscape:window-width="1094"
     inkscape:window-height="725"
     inkscape:window-x="57"
     inkscape:window-y="33"
     inkscape:window-maximized="0" />
  <metadata
     id="metadata3760">
    <rdf:RDF>
      <cc:Work
         rdf:about="">
        <dc:format>image/svg+xml</dc:format>
        <dc:type
           rdf:resource="http://purl.org/dc/dcmitype/StillImage" />
        <dc:title></dc:title>
      </cc:Work>
    </rdf:RDF>
  </metadata>
  <g
     inkscape:label="Layer 1"
     inkscape:groupmode="layer"
     id="layer1">
    <path
       sodipodi:type="arc"
       style="fill:#092140;fill-opacity:1;stroke:none"
       id="path3782"
       sodipodi:cx="305.71429"
       sodipodi:cy="189.50504"
       sodipodi:rx="48.57143"
       sodipodi:ry="65.714287"
       d="m 354.28572,189.50504 a 48.57143,65.714287 0 1 1 -97.14286,0 48.57143,65.714287 0 1 1 97.14286,0 z"
       transform="matrix(-1,0,0,1,626.07583,22.857143)"
       inkscape:export-filename="/Users/k/Sites/limejs/duelists/assets/sprites/antag01.png"
       inkscape:export-xdpi="7.3603144"
       inkscape:export-ydpi="7.3603144" />
    <path
       style="fill:#092140;fill-opacity:1;stroke:none"
       d="m 320.36155,243.79075 c 27.95035,189.22995 1.74588,303.03935 5.71429,300 l -108.57143,314.28572 -25.71429,-4.28572 97.14286,-361.42857 28.57143,-234.28571 c -54.59319,80.31574 -55.20049,176.33349 -97.14286,259.99999 l 32.85714,17.14287 c 21.38106,-51.35143 11.79677,-115.31022 55.71429,-217.14286"
       id="path4292"
       inkscape:connector-curvature="0"
       sodipodi:nodetypes="ccccccccc"
       inkscape:export-filename="/Users/k/Sites/limejs/duelists/assets/sprites/antag01.png"
       inkscape:export-xdpi="7.3603144"
       inkscape:export-ydpi="7.3603144" />
    <path
       sodipodi:nodetypes="ccccccccc"
       inkscape:connector-curvature="0"
       id="path4296"
       d="m 324.85589,249.50504 c -27.95035,189.22995 -1.74588,303.03935 -5.71429,300 l 64.28572,315.71429 30,-1.42857 -57.14286,-365.71429 -28.57143,-234.28571 c 37.30054,57.72756 102.70848,259.21224 100,282.85714 -12.54357,9.51798 -19.34202,6.22506 -38.53393,14.34196 24.99385,-10.01929 -9.95438,-150.69694 -52.89464,-237.1991"
       style="fill:#092140;fill-opacity:1;stroke:none"
       inkscape:export-filename="/Users/k/Sites/limejs/duelists/assets/sprites/antag01.png"
       inkscape:export-xdpi="7.3603144"
       inkscape:export-ydpi="7.3603144" />
  </g>
  <g
     inkscape:groupmode="layer"
     id="layer2"
     inkscape:label="Layer"
     style="display:none">
    <rect
       style="fill:#000000;fill-opacity:1;fill-rule:nonzero;stroke:none"
       id="rect5618"
       width="94.285713"
       height="151.42857"
       x="192.41371"
       y="88.495697"
       rx="3.5724089"
       ry="4.5756822"
       transform="matrix(0.96860987,-0.24858585,0.24858585,0.96860987,0,0)" />
    <path
       sodipodi:type="arc"
       style="fill:#000000;fill-opacity:1;fill-rule:nonzero;stroke:none"
       id="path6128"
       sodipodi:cx="301.42856"
       sodipodi:cy="172.36218"
       sodipodi:rx="87.14286"
       sodipodi:ry="20"
       d="m 388.57142,172.36218 a 87.14286,20 0 1 1 -174.28572,0 87.14286,20 0 1 1 174.28572,0 z"
       transform="matrix(0.97643969,-0.21579047,0.21579047,0.97643969,-35.806653,74.820604)" />
  </g>
  <g
     inkscape:groupmode="layer"
     id="layer3"
     inkscape:label="antag">
    <path
       transform="matrix(-0.82899521,-0.21579047,-0.18320565,0.97643969,607.65783,74.108707)"
       style="fill:#092140;fill-opacity:1;fill-rule:nonzero;stroke:none"
       d="m 429.2368,175.49695 c 0,11.0457 -79.68057,16.86523 -127.80824,16.86523 -48.12767,0 -122.05604,-22.52218 -122.05604,-33.56788 0,-11.04569 73.92837,-6.43212 122.05604,-6.43212 48.12767,0 127.80824,12.08908 127.80824,23.13477 z"
       id="path6128-9"
       inkscape:connector-curvature="0"
       sodipodi:nodetypes="sssss"
       inkscape:export-filename="/Users/k/Sites/limejs/duelists/assets/sprites/antag01.png"
       inkscape:export-xdpi="7.3603144"
       inkscape:export-ydpi="7.3603144" />
    <path
       transform="matrix(-0.95861458,-0.4557274,-0.28470702,1.5344438,654.40806,28.420488)"
       style="fill:#092140;fill-opacity:1;fill-rule:nonzero;stroke:none"
       d="m 348.57142,162.36218 c 0,18.1465 -24.30454,32.85715 -54.28571,32.85715 -29.98118,0 -54.28572,-14.71065 -54.28572,-32.85715 0,-18.1465 11.11823,-38.63546 44.9404,-11.42661 29.98117,0 22.54755,-18.92162 63.63103,11.42661 z"
       id="path6167"
       inkscape:connector-curvature="0"
       sodipodi:nodetypes="csccc"
       inkscape:export-filename="/Users/k/Sites/limejs/duelists/assets/sprites/antag01.png"
       inkscape:export-xdpi="7.3603144"
       inkscape:export-ydpi="7.3603144" />
  </g>
</svg>
