<?xml version="1.0" encoding="UTF-8" standalone="no"?>
<!-- Created with Inkscape (http://www.inkscape.org/) -->

<svg
   xmlns:dc="http://purl.org/dc/elements/1.1/"
   xmlns:cc="http://creativecommons.org/ns#"
   xmlns:rdf="http://www.w3.org/1999/02/22-rdf-syntax-ns#"
   xmlns:svg="http://www.w3.org/2000/svg"
   xmlns="http://www.w3.org/2000/svg"
   xmlns:sodipodi="http://sodipodi.sourceforge.net/DTD/sodipodi-0.dtd"
   xmlns:inkscape="http://www.inkscape.org/namespaces/inkscape"
   width="744.09448819"
   height="1052.3622047"
   id="svg3755"
   version="1.1"
   inkscape:version="0.48.2 r9819"
   inkscape:export-filename="/Users/k/Sites/limejs/duelists/assets/sprites/antag.png"
   inkscape:export-xdpi="7.3603144"
   inkscape:export-ydpi="7.3603144"
   sodipodi:docname="duelist.svg">
  <defs
     id="defs3757" />
  <sodipodi:namedview
     id="base"
     pagecolor="#ffffff"
     bordercolor="#666666"
     borderopacity="1.0"
     inkscape:pageopacity="0.0"
     inkscape:pageshadow="2"
     inkscape:zoom="0.7"
     inkscape:cx="284.64096"
     inkscape:cy="815.31715"
     inkscape:document-units="px"
     inkscape:current-layer="layer1"
     showgrid="false"
     inkscape:window-width="1094"
     inkscape:window-height="725"
     inkscape:window-x="57"
     inkscape:window-y="33"
     inkscape:window-maximized="0" />
  <metadata
     id="metadata3760">
    <rdf:RDF>
      <cc:Work
         rdf:about="">
        <dc:format>image/svg+xml</dc:format>
        <dc:type
           rdf:resource="http://purl.org/dc/dcmitype/StillImage" />
        <dc:title></dc:title>
      </cc:Work>
    </rdf:RDF>
  </metadata>
  <g
     inkscape:label="Layer 1"
     inkscape:groupmode="layer"
     id="layer1">
    <path
       transform="matrix(-1,0,0,1,626.07583,22.857143)"
       style="fill:#092140;fill-opacity:1;stroke:none"
       d="m 368.57143,195.21933 c -35.71428,13.43584 -3.17474,51.42856 -30,51.42856 -26.82526,0 -77.14286,-25.13557 -81.42857,-57.14285 -4.81658,-35.97197 21.74617,-65.71429 48.57143,-65.71429 26.82526,0 62.85714,35.13558 62.85714,71.42858 z"
       id="path3782"
       inkscape:connector-curvature="0"
       sodipodi:nodetypes="ccscc" />
    <path
       style="fill:#092140;fill-opacity:1;stroke:none"
       d="m 320.36155,243.79075 c 27.95035,189.22995 1.74588,303.03935 5.71429,300 l -65.71429,311.42858 -25.71429,-4.28572 54.28572,-358.57143 22.85715,-188.57142 C 298.2964,310.832 219.69909,462.51089 228.93297,559.50503 l -27.14285,-29.99999 c 3.98826,-77.44063 43.99616,-211.29685 115.71429,-271.42857"
       id="path4292"
       inkscape:connector-curvature="0"
       sodipodi:nodetypes="ccccccccc"
       inkscape:export-filename="/Users/k/Sites/limejs/duelists/assets/sprites/antag.png"
       inkscape:export-xdpi="7.3603144"
       inkscape:export-ydpi="7.3603144" />
    <path
       sodipodi:nodetypes="ccccccccc"
       inkscape:connector-curvature="0"
       id="path4296"
       d="m 324.85589,249.50504 c -27.95035,189.22995 -1.74588,303.03935 -5.71429,300 l 50,307.14286 15.71429,4.28572 -28.57143,-362.85715 11.42857,-122.85714 c 23.18449,77.1524 60.83863,90.89823 7.14286,144.28571 -12.54357,9.51798 33.51512,33.36792 14.32321,41.48482 43.9928,-20.38235 55.85863,-267.76377 -47.18035,-321.48481"
       style="fill:#092140;fill-opacity:1;stroke:none"
       inkscape:export-filename="/Users/k/Sites/limejs/duelists/assets/sprites/antag.png"
       inkscape:export-xdpi="7.3603144"
       inkscape:export-ydpi="7.3603144" />
    <path
       style="fill:#092140;fill-opacity:1;stroke:none"
       d="m 283.85287,248.28076 -32.32489,4.2752 -0.29586,-1.18347 -15.86658,0.94888 0,-4.04061 15.57071,-1.01016 -0.0613,-2.2549 42.06927,1.24475 -3.03046,3.03046 z"
       id="path11246"
       inkscape:connector-curvature="0"
       sodipodi:nodetypes="cccccccccc" />
  </g>
  <g
     inkscape:groupmode="layer"
     id="layer2"
     inkscape:label="Layer"
     style="display:none">
    <rect
       style="fill:#000000;fill-opacity:1;fill-rule:nonzero;stroke:none"
       id="rect5618"
       width="94.285713"
       height="151.42857"
       x="192.41371"
       y="88.495697"
       rx="3.5724089"
       ry="4.5756822"
       transform="matrix(0.96860987,-0.24858585,0.24858585,0.96860987,0,0)" />
    <path
       sodipodi:type="arc"
       style="fill:#000000;fill-opacity:1;fill-rule:nonzero;stroke:none"
       id="path6128"
       sodipodi:cx="301.42856"
       sodipodi:cy="172.36218"
       sodipodi:rx="87.14286"
       sodipodi:ry="20"
       d="m 388.57142,172.36218 a 87.14286,20 0 1 1 -174.28572,0 87.14286,20 0 1 1 174.28572,0 z"
       transform="matrix(0.97643969,-0.21579047,0.21579047,0.97643969,-35.806653,74.820604)" />
  </g>
  <g
     inkscape:groupmode="layer"
     id="layer3"
     inkscape:label="antag">
    <path
       sodipodi:type="arc"
       style="fill:#092140;fill-opacity:1;fill-rule:nonzero;stroke:none"
       id="path6128-9"
       sodipodi:cx="301.42856"
       sodipodi:cy="172.36218"
       sodipodi:rx="87.14286"
       sodipodi:ry="20"
       d="m 388.57142,172.36218 a 87.14286,20 0 1 1 -174.28572,0 87.14286,20 0 1 1 174.28572,0 z"
       transform="matrix(-0.82899521,-0.21579047,-0.18320565,0.97643969,607.65783,74.108707)"
       inkscape:export-filename="/Users/k/Sites/limejs/duelists/assets/sprites/antag.png"
       inkscape:export-xdpi="7.3603144"
       inkscape:export-ydpi="7.3603144" />
    <path
       sodipodi:type="arc"
       style="fill:#092140;fill-opacity:1;fill-rule:nonzero;stroke:none"
       id="path6167"
       sodipodi:cx="294.28571"
       sodipodi:cy="162.36218"
       sodipodi:rx="54.285713"
       sodipodi:ry="32.857143"
       d="m 348.57142,162.36218 a 54.285713,32.857143 0 1 1 -108.57143,0 54.285713,32.857143 0 1 1 108.57143,0 z"
       transform="matrix(-0.95861458,-0.28470702,-0.28470702,0.95861458,654.40806,90.504633)"
       inkscape:export-filename="/Users/k/Sites/limejs/duelists/assets/sprites/antag.png"
       inkscape:export-xdpi="7.3603144"
       inkscape:export-ydpi="7.3603144" />
  </g>
</svg>
