<?xml version="1.0" encoding="UTF-8" standalone="no"?>
<!-- Created with Inkscape (http://www.inkscape.org/) -->

<svg
   xmlns:dc="http://purl.org/dc/elements/1.1/"
   xmlns:cc="http://creativecommons.org/ns#"
   xmlns:rdf="http://www.w3.org/1999/02/22-rdf-syntax-ns#"
   xmlns:svg="http://www.w3.org/2000/svg"
   xmlns="http://www.w3.org/2000/svg"
   xmlns:sodipodi="http://sodipodi.sourceforge.net/DTD/sodipodi-0.dtd"
   xmlns:inkscape="http://www.inkscape.org/namespaces/inkscape"
   width="744.09448819"
   height="1052.3622047"
   id="svg3755"
   version="1.1"
   inkscape:version="0.48.2 r9819"
   inkscape:export-filename="/Users/k/Sites/limejs/duelists/assets/sprites/antag08.png"
   inkscape:export-xdpi="7.3603144"
   inkscape:export-ydpi="7.3603144"
   sodipodi:docname="antag08.svg">
  <defs
     id="defs3757" />
  <sodipodi:namedview
     id="base"
     pagecolor="#ffffff"
     bordercolor="#666666"
     borderopacity="1.0"
     inkscape:pageopacity="0.0"
     inkscape:pageshadow="2"
     inkscape:zoom="0.7"
     inkscape:cx="275"
     inkscape:cy="762.43661"
     inkscape:document-units="px"
     inkscape:current-layer="layer1"
     showgrid="false"
     inkscape:window-width="1094"
     inkscape:window-height="725"
     inkscape:window-x="57"
     inkscape:window-y="33"
     inkscape:window-maximized="0" />
  <metadata
     id="metadata3760">
    <rdf:RDF>
      <cc:Work
         rdf:about="">
        <dc:format>image/svg+xml</dc:format>
        <dc:type
           rdf:resource="http://purl.org/dc/dcmitype/StillImage" />
        <dc:title></dc:title>
      </cc:Work>
    </rdf:RDF>
  </metadata>
  <g
     inkscape:label="Layer 1"
     inkscape:groupmode="layer"
     id="layer1">
    <path
       transform="matrix(-1,0,0,1,626.07583,22.857143)"
       style="fill:#092140;fill-opacity:1;stroke:none"
       d="m 357.14286,202.36219 c 48.71459,53.7858 -37.17172,54.02256 -51.42857,59.99999 -26.82526,0 -48.57143,-36.56415 -48.57143,-72.85714 0,-36.293 21.74617,-58.57143 48.57143,-58.57143 29.3868,2.30539 116.79212,93.96277 51.42857,71.42858 z"
       id="path3782"
       inkscape:connector-curvature="0"
       sodipodi:nodetypes="ccscc" />
    <path
       style="fill:#092140;fill-opacity:1;stroke:none"
       d="m 308.93298,278.07646 c 27.95035,-71.77765 16.03159,283.03935 20,280 -138.55917,93.66148 -80.92088,199.58531 -111.42857,300.00001 l -25.71429,-4.28572 c 25.23434,-113.32957 -32.77367,-143.4168 97.14286,-361.42857 l 1.42857,-155.71428 c -67.73686,84.14747 -71.82847,141.79086 -22.85714,191.42856 l -30.00001,5.7143 c -35.7618,-22.78 -42.48894,-66.73879 1.42858,-168.57143"
       id="path4292"
       inkscape:connector-curvature="0"
       sodipodi:nodetypes="ccccccccc"
       inkscape:export-filename="/Users/k/Sites/limejs/duelists/assets/sprites/antag01.png"
       inkscape:export-xdpi="7.3603144"
       inkscape:export-ydpi="7.3603144" />
    <path
       sodipodi:nodetypes="ccccccccc"
       inkscape:connector-curvature="0"
       id="path4296"
       d="m 324.85589,249.50504 c -27.95035,189.22995 -16.03159,331.61078 -20,328.57143 91.09106,-36.79107 74.16422,146.95441 78.57143,287.14286 l 30,-1.42857 C 411.16058,742.6156 440.03807,622.79454 356.28446,498.07647 L 344.85589,346.6479 c 9.29151,-6.05126 62.50401,91.12574 114.28571,187.14286 -12.54357,9.51798 39.22941,-19.48922 20.0375,-11.37232 C 446.20424,435.54619 380.20436,305.99811 336.28446,256.6479"
       style="fill:#092140;fill-opacity:1;stroke:none"
       inkscape:export-filename="/Users/k/Sites/limejs/duelists/assets/sprites/antag01.png"
       inkscape:export-xdpi="7.3603144"
       inkscape:export-ydpi="7.3603144" />
  </g>
  <g
     inkscape:groupmode="layer"
     id="layer2"
     inkscape:label="Layer"
     style="display:none">
    <rect
       style="fill:#000000;fill-opacity:1;fill-rule:nonzero;stroke:none"
       id="rect5618"
       width="94.285713"
       height="151.42857"
       x="192.41371"
       y="88.495697"
       rx="3.5724089"
       ry="4.5756822"
       transform="matrix(0.96860987,-0.24858585,0.24858585,0.96860987,0,0)" />
    <path
       sodipodi:type="arc"
       style="fill:#000000;fill-opacity:1;fill-rule:nonzero;stroke:none"
       id="path6128"
       sodipodi:cx="301.42856"
       sodipodi:cy="172.36218"
       sodipodi:rx="87.14286"
       sodipodi:ry="20"
       d="m 388.57142,172.36218 a 87.14286,20 0 1 1 -174.28572,0 87.14286,20 0 1 1 174.28572,0 z"
       transform="matrix(0.97643969,-0.21579047,0.21579047,0.97643969,-35.806653,74.820604)" />
  </g>
  <g
     inkscape:groupmode="layer"
     id="layer3"
     inkscape:label="antag">
    <path
       transform="matrix(-0.82899521,-0.21579047,-0.18320565,0.97643969,607.65783,74.108707)"
       style="fill:#092140;fill-opacity:1;fill-rule:nonzero;stroke:none"
       d="m 429.2368,175.49695 c 1.24023,11.06798 -79.68057,16.86523 -127.80824,16.86523 -48.12767,0 -113.23606,-25.01421 -122.05604,-33.56788 -3.96818,-3.84837 69.40601,-15.26329 122.05604,-6.43212 46.78822,7.84795 127.59245,21.20906 127.80824,23.13477 z"
       id="path6128-9"
       inkscape:connector-curvature="0"
       sodipodi:nodetypes="sssss"
       inkscape:export-filename="/Users/k/Sites/limejs/duelists/assets/sprites/antag01.png"
       inkscape:export-xdpi="7.3603144"
       inkscape:export-ydpi="7.3603144" />
    <path
       transform="matrix(-0.95861458,-0.4557274,-0.28470702,1.5344438,654.40806,28.420488)"
       style="fill:#092140;fill-opacity:1;fill-rule:nonzero;stroke:none"
       d="m 328.73583,163.91906 c 14.30585,30.29513 -4.46895,31.30027 -34.45012,31.30027 -29.98118,0 -54.28572,-14.71065 -54.28572,-32.85715 0,-18.1465 -3.09772,-15.8585 1.82417,-16.78404 12.58043,4.25499 81.27917,12.9852 86.91167,18.34092 z"
       id="path6167"
       inkscape:connector-curvature="0"
       sodipodi:nodetypes="csccc"
       inkscape:export-filename="/Users/k/Sites/limejs/duelists/assets/sprites/antag01.png"
       inkscape:export-xdpi="7.3603144"
       inkscape:export-ydpi="7.3603144" />
  </g>
</svg>
