<?xml version="1.0" encoding="UTF-8" standalone="no"?>
<!-- Created with Inkscape (http://www.inkscape.org/) -->

<svg
   xmlns:dc="http://purl.org/dc/elements/1.1/"
   xmlns:cc="http://creativecommons.org/ns#"
   xmlns:rdf="http://www.w3.org/1999/02/22-rdf-syntax-ns#"
   xmlns:svg="http://www.w3.org/2000/svg"
   xmlns="http://www.w3.org/2000/svg"
   xmlns:sodipodi="http://sodipodi.sourceforge.net/DTD/sodipodi-0.dtd"
   xmlns:inkscape="http://www.inkscape.org/namespaces/inkscape"
   width="744.09448819"
   height="1052.3622047"
   id="svg3755"
   version="1.1"
   inkscape:version="0.48.2 r9819"
   inkscape:export-filename="/Users/k/Sites/limejs/duelists/assets/sprites/antag05.png"
   inkscape:export-xdpi="7.3603144"
   inkscape:export-ydpi="7.3603144"
   sodipodi:docname="antag03.svg">
  <defs
     id="defs3757" />
  <sodipodi:namedview
     id="base"
     pagecolor="#ffffff"
     bordercolor="#666666"
     borderopacity="1.0"
     inkscape:pageopacity="0.0"
     inkscape:pageshadow="2"
     inkscape:zoom="0.7"
     inkscape:cx="275"
     inkscape:cy="577.14286"
     inkscape:document-units="px"
     inkscape:current-layer="layer1"
     showgrid="false"
     inkscape:window-width="1094"
     inkscape:window-height="725"
     inkscape:window-x="57"
     inkscape:window-y="33"
     inkscape:window-maximized="0" />
  <metadata
     id="metadata3760">
    <rdf:RDF>
      <cc:Work
         rdf:about="">
        <dc:format>image/svg+xml</dc:format>
        <dc:type
           rdf:resource="http://purl.org/dc/dcmitype/StillImage" />
        <dc:title></dc:title>
      </cc:Work>
    </rdf:RDF>
  </metadata>
  <g
     inkscape:label="Layer 1"
     inkscape:groupmode="layer"
     id="layer1">
    <path
       transform="matrix(-1,0,0,1,626.07583,28.857143)"
       style="fill:#092140;fill-opacity:1;stroke:none"
       d="m 357.14286,165.21933 c 0,18.14649 17.4206,26.00363 8.6309,37.89558 -8.7897,11.89194 -46.64684,52.10441 -60.05947,52.10441 -26.82526,0 -48.57143,-29.42129 -48.57143,-65.71428 0,-36.293 21.74617,-65.71429 48.57143,-65.71429 26.82526,0 51.42857,5.13558 51.42857,41.42858 z"
       id="path3782"
       inkscape:connector-curvature="0"
       sodipodi:nodetypes="cccssc" />
    <path
       style="fill:#092140;fill-opacity:1;stroke:none"
       d="m 326.07584,260.93361 c 27.95035,189.22995 24.60302,301.61077 28.57143,298.57142 l -11.42857,304.28572 -77.14287,-1.42857 47.14286,-350 -44.28571,-154.28571 c -73.35085,49.05298 26.14249,228.09562 8.57143,185.71427 -40.37937,-0.1024 -14.10556,4.46253 -33.01667,13.19916 -71.6928,-156.1112 0.61241,-241.19919 24.44524,-261.77058"
       id="path4292"
       inkscape:connector-curvature="0"
       sodipodi:nodetypes="ccccccccc"
       inkscape:export-filename="/Users/k/Sites/limejs/duelists/assets/sprites/antag02.png"
       inkscape:export-xdpi="7.3603144"
       inkscape:export-ydpi="7.3603144" />
    <path
       sodipodi:nodetypes="ccccccccc"
       inkscape:connector-curvature="0"
       id="path4296"
       d="m 316.28446,258.07647 c -27.95035,189.22995 33.96841,290.18221 30,287.14286 l 37.14286,320 70,-4.28571 -60,-314.28572 -32.85715,-227.14285 c 37.30054,57.72756 94.13706,220.64081 91.42858,244.28571 7.45643,6.66084 22.08654,7.65362 27.18034,2.91338 C 463.08551,544.30337 434.45356,284.29058 371.99875,279.50505"
       style="fill:#092140;fill-opacity:1;stroke:none"
       inkscape:export-filename="/Users/k/Sites/limejs/duelists/assets/sprites/antag02.png"
       inkscape:export-xdpi="7.3603144"
       inkscape:export-ydpi="7.3603144" />
  </g>
  <g
     inkscape:groupmode="layer"
     id="layer2"
     inkscape:label="Layer"
     style="display:none">
    <rect
       style="fill:#000000;fill-opacity:1;fill-rule:nonzero;stroke:none"
       id="rect5618"
       width="94.285713"
       height="151.42857"
       x="192.41371"
       y="88.495697"
       rx="3.5724089"
       ry="4.5756822"
       transform="matrix(0.96860987,-0.24858585,0.24858585,0.96860987,0,0)" />
    <path
       sodipodi:type="arc"
       style="fill:#000000;fill-opacity:1;fill-rule:nonzero;stroke:none"
       id="path6128"
       sodipodi:cx="301.42856"
       sodipodi:cy="172.36218"
       sodipodi:rx="87.14286"
       sodipodi:ry="20"
       d="m 388.57142,172.36218 a 87.14286,20 0 1 1 -174.28572,0 87.14286,20 0 1 1 174.28572,0 z"
       transform="matrix(0.97643969,-0.21579047,0.21579047,0.97643969,-35.806653,74.820604)" />
  </g>
  <g
     inkscape:groupmode="layer"
     id="layer3"
     inkscape:label="antag" />
</svg>
