<?xml version="1.0" encoding="UTF-8" standalone="no"?>
<!-- Created with Inkscape (http://www.inkscape.org/) -->

<svg
   xmlns:dc="http://purl.org/dc/elements/1.1/"
   xmlns:cc="http://creativecommons.org/ns#"
   xmlns:rdf="http://www.w3.org/1999/02/22-rdf-syntax-ns#"
   xmlns:svg="http://www.w3.org/2000/svg"
   xmlns="http://www.w3.org/2000/svg"
   xmlns:xlink="http://www.w3.org/1999/xlink"
   xmlns:sodipodi="http://sodipodi.sourceforge.net/DTD/sodipodi-0.dtd"
   xmlns:inkscape="http://www.inkscape.org/namespaces/inkscape"
   width="744.09448819"
   height="1052.3622047"
   id="svg4371"
   version="1.1"
   inkscape:version="0.48.2 r9819"
   sodipodi:docname="background.svg"
   inkscape:export-filename="/Users/k/Sites/limejs/duelists/assets/background.png"
   inkscape:export-xdpi="92.330521"
   inkscape:export-ydpi="92.330521">
  <defs
     id="defs4373">
    <linearGradient
       inkscape:collect="always"
       id="linearGradient5475">
      <stop
         style="stop-color:#fbf0da;stop-opacity:1;"
         offset="0"
         id="stop5477" />
      <stop
         style="stop-color:#fbf0da;stop-opacity:0;"
         offset="1"
         id="stop5479" />
    </linearGradient>
    <radialGradient
       inkscape:collect="always"
       xlink:href="#linearGradient5475"
       id="radialGradient5481"
       cx="425.7793"
       cy="658.40271"
       fx="425.7793"
       fy="658.40271"
       r="81.317284"
       gradientTransform="matrix(1,0,0,0.60869562,0,257.63586)"
       gradientUnits="userSpaceOnUse" />
  </defs>
  <sodipodi:namedview
     id="base"
     pagecolor="#ffffff"
     bordercolor="#666666"
     borderopacity="1.0"
     inkscape:pageopacity="0.0"
     inkscape:pageshadow="2"
     inkscape:zoom="0.98994949"
     inkscape:cx="391.40588"
     inkscape:cy="681.62441"
     inkscape:document-units="px"
     inkscape:current-layer="layer1"
     showgrid="false"
     inkscape:window-width="1214"
     inkscape:window-height="810"
     inkscape:window-x="97"
     inkscape:window-y="16"
     inkscape:window-maximized="0" />
  <metadata
     id="metadata4376">
    <rdf:RDF>
      <cc:Work
         rdf:about="">
        <dc:format>image/svg+xml</dc:format>
        <dc:type
           rdf:resource="http://purl.org/dc/dcmitype/StillImage" />
        <dc:title></dc:title>
      </cc:Work>
    </rdf:RDF>
  </metadata>
  <g
     inkscape:label="Layer 1"
     inkscape:groupmode="layer"
     id="layer1">
    <rect
       style="fill:#f2c777;fill-opacity:1;fill-rule:nonzero;stroke:none"
       id="rect4379"
       width="680"
       height="451.42856"
       x="58.57143"
       y="-753.79077"
       rx="8.5565166"
       ry="10.018242"
       transform="scale(1,-1)" />
    <path
       transform="matrix(2.7577639,0,0,2.877551,-746.90425,-1274.5705)"
       d="m 507.09658,658.40271 a 81.317284,49.497475 0 1 1 -162.63457,0 81.317284,49.497475 0 1 1 162.63457,0 z"
       sodipodi:ry="49.497475"
       sodipodi:rx="81.317284"
       sodipodi:cy="658.40271"
       sodipodi:cx="425.7793"
       id="path5473"
       style="fill:url(#radialGradient5481);fill-opacity:1;fill-rule:nonzero;stroke:none"
       sodipodi:type="arc" />
    <path
       sodipodi:type="arc"
       style="fill:#fbf0da;fill-opacity:1;fill-rule:nonzero;stroke:none"
       id="path5469"
       sodipodi:cx="425.7793"
       sodipodi:cy="658.40271"
       sodipodi:rx="81.317284"
       sodipodi:ry="49.497475"
       d="m 507.09658,658.40271 a 81.317284,49.497475 0 1 1 -162.63457,0 81.317284,49.497475 0 1 1 162.63457,0 z"
       transform="matrix(1,0,0,1.3469388,0,-223.37466)" />
    <path
       style="fill:#911409;fill-opacity:1;fill-rule:nonzero;stroke:none"
       d="m 58.588848,648.30118 c 56.286162,-5.60224 88.370812,-17.80489 171.220842,-16.16244 l 169.20054,16.16244 c 127.55674,18.66239 237.70937,14.06928 340.42139,0 l 0,106.06602 -680.842772,0 z"
       id="rect5466"
       inkscape:connector-curvature="0"
       sodipodi:nodetypes="ccccccc" />
    <path
       style="fill:#bf2a2a;fill-opacity:1;fill-rule:nonzero;stroke:none"
       d="m 59.598998,667.49405 c 51.035362,5.0035 96.210022,13.52341 159.604092,11.11168 113.81052,0 259.94592,-24.24366 373.75643,-24.24366 91.61731,-4.82832 115.42509,16.87752 147.48227,35.35534 l 0,66.67006 -682.863097,0 z"
       id="rect5483"
       inkscape:connector-curvature="0"
       sodipodi:nodetypes="ccccccc" />
    <path
       style="fill:#f24738;fill-opacity:1;fill-rule:nonzero;stroke:none"
       d="m 59.598999,702.84943 c 53.779251,0.32815 75.333011,4.44754 169.705631,0 56.02331,-0.36349 106.51397,-4.4154 169.70562,0 56.56855,0 113.13709,9.13618 169.70563,0 109.75253,-13.87408 115.19935,-0.53798 169.70563,0 l 0,54.54823 -678.822511,0 z"
       id="rect5486"
       inkscape:connector-curvature="0"
       sodipodi:nodetypes="cccccccc" />
  </g>
</svg>
