<?xml version="1.0" encoding="UTF-8" standalone="no"?>
<!-- Created with Inkscape (http://www.inkscape.org/) -->

<svg
   xmlns:dc="http://purl.org/dc/elements/1.1/"
   xmlns:cc="http://creativecommons.org/ns#"
   xmlns:rdf="http://www.w3.org/1999/02/22-rdf-syntax-ns#"
   xmlns:svg="http://www.w3.org/2000/svg"
   xmlns="http://www.w3.org/2000/svg"
   xmlns:sodipodi="http://sodipodi.sourceforge.net/DTD/sodipodi-0.dtd"
   xmlns:inkscape="http://www.inkscape.org/namespaces/inkscape"
   width="744.09448819"
   height="1052.3622047"
   id="svg3755"
   version="1.1"
   inkscape:version="0.48.2 r9819"
   inkscape:export-filename="/Users/k/Sites/limejs/duelists/assets/sprites/protag.png"
   inkscape:export-xdpi="7.3603144"
   inkscape:export-ydpi="7.3603144"
   sodipodi:docname="antag06.svg">
  <defs
     id="defs3757" />
  <sodipodi:namedview
     id="base"
     pagecolor="#ffffff"
     bordercolor="#666666"
     borderopacity="1.0"
     inkscape:pageopacity="0.0"
     inkscape:pageshadow="2"
     inkscape:zoom="0.7"
     inkscape:cx="284.64096"
     inkscape:cy="529.60286"
     inkscape:document-units="px"
     inkscape:current-layer="layer1"
     showgrid="false"
     inkscape:window-width="1095"
     inkscape:window-height="799"
     inkscape:window-x="57"
     inkscape:window-y="33"
     inkscape:window-maximized="0" />
  <metadata
     id="metadata3760">
    <rdf:RDF>
      <cc:Work
         rdf:about="">
        <dc:format>image/svg+xml</dc:format>
        <dc:type
           rdf:resource="http://purl.org/dc/dcmitype/StillImage" />
        <dc:title></dc:title>
      </cc:Work>
    </rdf:RDF>
  </metadata>
  <g
     inkscape:label="Layer 1"
     inkscape:groupmode="layer"
     id="layer1">
    <path
       style="fill:#092140;fill-opacity:1;stroke:none"
       d="m 365.82564,218.07647 c -35.71428,13.43584 -3.17474,51.42856 -30,51.42856 -26.82526,0 -77.14286,-25.13557 -81.42857,-57.14285 -4.81658,-35.97197 21.74617,-65.71429 48.57143,-65.71429 25.91898,0 29.50729,35.13558 62.85714,71.42858 z"
       id="path3782"
       inkscape:connector-curvature="0"
       sodipodi:nodetypes="ccscc" />
    <path
       style="fill:#092140;fill-opacity:1;stroke:none"
       d="m 302.96849,243.79075 c -27.95035,189.22995 -16.03159,308.75364 -20,305.71429 45.70345,99.84308 79.9945,198.25489 80,305.71429 l 25.71429,-4.28572 C 388.78663,736.60954 359.96493,614.02103 334.39706,492.36218 l 15.71428,-148.57142 c -6.50627,12.75553 20.66247,67.29156 11.42859,164.2857 l 34.2857,8.57144 c -3.47244,-77.87048 1.78755,-215.16423 -90,-258.57143"
       id="path4292"
       inkscape:connector-curvature="0"
       sodipodi:nodetypes="ccccccccc"
       inkscape:export-filename="/Users/k/Sites/limejs/duelists/assets/sprites/antag.png"
       inkscape:export-xdpi="7.3603144"
       inkscape:export-ydpi="7.3603144" />
    <path
       sodipodi:nodetypes="ccccccccc"
       inkscape:connector-curvature="0"
       id="path4296"
       d="m 289.90272,239.50504 c 65.05771,28.4314 20.31731,293.03935 24.28572,290 l -47.14286,331.42857 -28.57143,10e-6 28.57143,-362.85715 -11.42857,-122.85714 c 8.74515,-132.67093 -60.83863,90.89823 -7.14286,144.28571 12.54357,9.51798 -33.51512,33.36792 -14.32321,41.48482 -43.9928,-20.38235 -70.14434,-230.62091 32.89464,-284.34195"
       style="fill:#092140;fill-opacity:1;stroke:none"
       inkscape:export-filename="/Users/k/Sites/limejs/duelists/assets/sprites/antag.png"
       inkscape:export-xdpi="7.3603144"
       inkscape:export-ydpi="7.3603144" />
  </g>
  <g
     inkscape:groupmode="layer"
     id="layer2"
     inkscape:label="Layer"
     style="display:none">
    <rect
       style="fill:#000000;fill-opacity:1;fill-rule:nonzero;stroke:none"
       id="rect5618"
       width="94.285713"
       height="151.42857"
       x="192.41371"
       y="88.495697"
       rx="3.5724089"
       ry="4.5756822"
       transform="matrix(0.96860987,-0.24858585,0.24858585,0.96860987,0,0)" />
    <path
       sodipodi:type="arc"
       style="fill:#000000;fill-opacity:1;fill-rule:nonzero;stroke:none"
       id="path6128"
       sodipodi:cx="301.42856"
       sodipodi:cy="172.36218"
       sodipodi:rx="87.14286"
       sodipodi:ry="20"
       d="m 388.57142,172.36218 a 87.14286,20 0 1 1 -174.28572,0 87.14286,20 0 1 1 174.28572,0 z"
       transform="matrix(0.97643969,-0.21579047,0.21579047,0.97643969,-35.806653,74.820604)" />
  </g>
  <g
     inkscape:groupmode="layer"
     id="layer3"
     inkscape:label="antag">
    <path
       sodipodi:type="arc"
       style="fill:#092140;fill-opacity:1;fill-rule:nonzero;stroke:none"
       id="path6128-9"
       sodipodi:cx="301.42856"
       sodipodi:cy="172.36218"
       sodipodi:rx="87.14286"
       sodipodi:ry="20"
       d="m 388.57142,172.36218 a 87.14286,20 0 1 1 -174.28572,0 87.14286,20 0 1 1 174.28572,0 z"
       transform="matrix(0.82899521,-0.21579047,0.18320565,0.97643969,15.672211,74.108707)"
       inkscape:export-filename="/Users/k/Sites/limejs/duelists/assets/sprites/antag.png"
       inkscape:export-xdpi="7.3603144"
       inkscape:export-ydpi="7.3603144" />
    <rect
       style="fill:#092140;fill-opacity:1;fill-rule:nonzero;stroke:none"
       id="rect14231"
       width="84.491112"
       height="155.02249"
       x="183.65434"
       y="102.36351"
       rx="9.0990438"
       ry="8.113327"
       transform="matrix(0.96516253,-0.26165108,0.3374135,0.94135654,0,0)" />
  </g>
</svg>
