<?xml version="1.0" encoding="UTF-8" standalone="no"?>
<!-- Created with Inkscape (http://www.inkscape.org/) -->

<svg
   xmlns:dc="http://purl.org/dc/elements/1.1/"
   xmlns:cc="http://creativecommons.org/ns#"
   xmlns:rdf="http://www.w3.org/1999/02/22-rdf-syntax-ns#"
   xmlns:svg="http://www.w3.org/2000/svg"
   xmlns="http://www.w3.org/2000/svg"
   xmlns:sodipodi="http://sodipodi.sourceforge.net/DTD/sodipodi-0.dtd"
   xmlns:inkscape="http://www.inkscape.org/namespaces/inkscape"
   width="744.09448819"
   height="1052.3622047"
   id="svg3755"
   version="1.1"
   inkscape:version="0.48.2 r9819"
   inkscape:export-filename="/Users/k/Sites/limejs/duelists/assets/sprites/protag_second.png"
   inkscape:export-xdpi="7.3603144"
   inkscape:export-ydpi="7.3603144"
   sodipodi:docname="protag_second.svg">
  <defs
     id="defs3757" />
  <sodipodi:namedview
     id="base"
     pagecolor="#ffffff"
     bordercolor="#666666"
     borderopacity="1.0"
     inkscape:pageopacity="0.0"
     inkscape:pageshadow="2"
     inkscape:zoom="0.49497475"
     inkscape:cx="284.64096"
     inkscape:cy="620.21923"
     inkscape:document-units="px"
     inkscape:current-layer="layer1"
     showgrid="false"
     inkscape:window-width="1094"
     inkscape:window-height="725"
     inkscape:window-x="87"
     inkscape:window-y="82"
     inkscape:window-maximized="0" />
  <metadata
     id="metadata3760">
    <rdf:RDF>
      <cc:Work
         rdf:about="">
        <dc:format>image/svg+xml</dc:format>
        <dc:type
           rdf:resource="http://purl.org/dc/dcmitype/StillImage" />
        <dc:title></dc:title>
      </cc:Work>
    </rdf:RDF>
  </metadata>
  <g
     inkscape:label="Layer 1"
     inkscape:groupmode="layer"
     id="layer1">
    <path
       style="fill:#092140;fill-opacity:1;stroke:none"
       d="m 371.88656,207.97494 c -35.71428,13.43584 -11.25597,45.36765 -38.08123,45.36765 -32.88617,24.24366 -75.12255,-8.97313 -79.40826,-40.98041 -4.81658,-35.97197 21.74617,-65.71429 48.57143,-65.71429 26.82526,0 42.65409,41.1965 68.91806,61.32705 z"
       id="path3782"
       inkscape:connector-curvature="0"
       sodipodi:nodetypes="ccscc" />
    <path
       style="fill:#092140;fill-opacity:1;stroke:none"
       d="m 302.96849,243.79075 c -27.95035,189.22995 -1.74588,303.03935 -5.71429,300 69.40117,103.80953 44.93973,207.61905 65.71429,311.42858 l 25.71429,-4.28572 C 377.27094,733.46014 393.78037,624.55239 334.39706,492.36218 l 9.46773,-186.55111 c 39.4158,42.39799 64.26978,155.47156 50.53228,253.69396 l 27.14285,-29.99999 c -2.76428,-77.80782 3.29012,-225.48273 -115.71429,-271.42857"
       id="path4292"
       inkscape:connector-curvature="0"
       sodipodi:nodetypes="ccccccccc"
       inkscape:export-filename="/Users/k/Sites/limejs/duelists/assets/sprites/antag.png"
       inkscape:export-xdpi="7.3603144"
       inkscape:export-ydpi="7.3603144" />
    <path
       sodipodi:nodetypes="ccccccccc"
       inkscape:connector-curvature="0"
       id="path4296"
       d="m 298.47415,249.50504 c 27.95035,189.22995 1.74588,303.03935 5.71429,300 -33.59622,-0.58277 -41.27952,118.68167 -31.81725,317.24439 l -33.89704,-5.81581 C 241.557,744.08003 210.77061,648.77959 267.04558,498.07647 L 261.67793,282.2853 c -23.18449,77.1524 -66.89955,183.83226 -13.20378,237.21974 12.54357,9.51798 -33.51512,33.36792 -14.32321,41.48482 -43.9928,-20.38235 -55.85863,-267.76377 47.18035,-321.48481"
       style="fill:#092140;fill-opacity:1;stroke:none"
       inkscape:export-filename="/Users/k/Sites/limejs/duelists/assets/sprites/antag.png"
       inkscape:export-xdpi="7.3603144"
       inkscape:export-ydpi="7.3603144" />
  </g>
  <g
     inkscape:groupmode="layer"
     id="layer2"
     inkscape:label="Layer"
     style="display:none">
    <rect
       style="fill:#000000;fill-opacity:1;fill-rule:nonzero;stroke:none"
       id="rect5618"
       width="94.285713"
       height="151.42857"
       x="192.41371"
       y="88.495697"
       rx="3.5724089"
       ry="4.5756822"
       transform="matrix(0.96860987,-0.24858585,0.24858585,0.96860987,0,0)" />
    <path
       sodipodi:type="arc"
       style="fill:#000000;fill-opacity:1;fill-rule:nonzero;stroke:none"
       id="path6128"
       sodipodi:cx="301.42856"
       sodipodi:cy="172.36218"
       sodipodi:rx="87.14286"
       sodipodi:ry="20"
       d="m 388.57142,172.36218 a 87.14286,20 0 1 1 -174.28572,0 87.14286,20 0 1 1 174.28572,0 z"
       transform="matrix(0.97643969,-0.21579047,0.21579047,0.97643969,-35.806653,74.820604)" />
  </g>
  <g
     inkscape:groupmode="layer"
     id="layer3"
     inkscape:label="antag">
    <path
       style="fill:#092140;fill-opacity:1;fill-rule:nonzero;stroke:none"
       d="m 349.29327,174.78433 c 5.16644,12.83399 -13.94402,14.92836 -42.6844,21.22591 -28.7404,6.29755 -48.14609,18.88511 -53.31252,6.05113 -5.16644,-12.83399 -22.88003,-61.79398 38.6438,-69.45275 67.1215,-8.35558 52.18669,29.34172 57.35312,42.17571 z"
       id="path6167"
       inkscape:connector-curvature="0"
       sodipodi:nodetypes="sssss" />
    <rect
       style="fill:#092140;fill-opacity:1;fill-rule:nonzero;stroke:none"
       id="rect12289"
       width="18.182745"
       height="24.243662"
       x="-300.08124"
       y="116.96093"
       rx="8.5565166"
       ry="7.2632256"
       transform="scale(-1,1)" />
    <path
       style="fill:#092140;fill-opacity:1;stroke:#000000;stroke-width:1px;stroke-linecap:butt;stroke-linejoin:miter;stroke-opacity:1"
       d="m 285.93909,121.00154 -70.71068,18.18274 -4.04061,-14.14213 z"
       id="path12291"
       inkscape:connector-curvature="0" />
    <path
       style="fill:#092140;fill-opacity:1;stroke:#000000;stroke-width:1px;stroke-linecap:butt;stroke-linejoin:miter;stroke-opacity:1"
       d="m 294.02031,121.00154 62.62946,-18.18275 0,12.12184 z"
       id="path12293"
       inkscape:connector-curvature="0" />
  </g>
</svg>
